# Blender v2.63 (sub 0) OBJ File: 'house.blend'
# www.blender.org
mtllib house.mtl
o Cube
v 0.806035 -0.428016 -0.870881
v 0.806035 -0.428016 0.870881
v -0.806035 -0.428016 0.870881
v -0.806035 -0.428016 -0.870881
v 0.925540 1.000000 -0.999999
v 0.925539 1.000000 1.000001
v -0.925540 1.000000 1.000000
v -0.925540 1.000000 -1.000000
v 0.997809 0.847822 1.296656
v -0.997809 0.847822 1.296656
v 1.000000 1.611995 0.002212
v -1.000000 1.611995 0.001902
v -0.998556 0.847822 -1.292853
v 0.998556 0.847822 -1.292854
v 0.925540 1.589564 0.000001
v -0.925540 1.577630 -0.000000
v -0.538261 1.062943 -0.370769
v -0.538261 1.062943 -0.689217
v -0.219813 1.062943 -0.689217
v -0.219813 1.062943 -0.370769
v -0.538261 1.705670 -0.370769
v -0.538261 1.705670 -0.689217
v -0.219813 1.705670 -0.689217
v -0.219813 1.705670 -0.370769
vt 0.062480 0.812525
vt 0.000030 0.812517
vt 0.000036 0.874990
vt 0.062476 0.875001
vt 0.123599 0.812758
vt 0.123640 0.863578
vt 0.063700 0.812757
vt 0.068815 0.812540
vt 0.068725 0.866430
vt 0.062538 0.812529
vt 0.069619 0.813079
vt 0.070052 0.856508
vt 0.063339 0.856508
vt 0.062534 0.867191
vt 0.062543 0.812533
vt 0.068722 0.866426
vt 0.002488 0.818627
vt 0.027779 0.818627
vt 0.027779 0.869673
vt 0.093758 0.874836
vt 0.063657 0.863577
vt 0.066696 0.874014
vt 0.002572 0.818588
vt 0.027863 0.818588
vt 0.027864 0.869634
vt 0.028146 0.818579
vt 0.002854 0.818579
vt 0.002572 0.869634
vt 0.027580 0.869377
vt 0.002289 0.869377
vt 0.002289 0.818331
vt 0.950565 0.049269
vt 0.950537 0.055090
vt 0.941088 0.055090
vt 0.062479 0.874994
vt 0.000028 0.874990
vt 0.062529 0.867195
vt 0.063772 0.813079
vt 0.068812 0.812544
vt 0.002488 0.869673
vt 0.027863 0.869634
vt 0.027580 0.818331
vt 0.941115 0.049269
vn 0.000079 0.861245 -0.508190
vn -0.000079 0.861191 0.508281
vn 0.996517 -0.083395 0.000000
vn -0.000000 -0.090052 0.995937
vn -0.996517 -0.083395 -0.000000
vn 0.000000 -0.090051 -0.995937
vn -1.000000 0.000000 0.000000
vn 1.000000 0.000000 0.000000
vn 0.000000 0.000000 -1.000000
vn 0.000000 0.000000 1.000000
vn 0.000000 1.000000 0.000000
vn -0.000000 0.861191 -0.508281
vn 0.000000 0.861138 0.508371
vn 0.996517 -0.083394 0.000000
vn -0.000001 -0.090051 0.995937
usemtl Material_textures.bmp
s off
f 12/1/1 11/2/1 14/3/1
f 11/2/2 12/1/2 10/4/2
f 1/5/3 5/6/3 2/7/3
f 2/8/4 6/9/4 3/10/4
f 3/11/5 7/12/5 8/13/5
f 5/14/6 1/15/6 8/16/6
f 21/17/7 22/18/7 18/19/7
f 15/20/8 6/21/8 5/6/8
f 16/22/7 8/13/7 7/12/7
f 22/23/9 23/24/9 19/25/9
f 23/26/8 24/27/8 20/28/8
f 24/29/10 21/30/10 17/31/10
f 24/32/11 23/33/11 22/34/11
f 13/35/12 12/1/12 14/3/12
f 9/36/13 11/2/13 10/4/13
f 5/6/14 6/21/14 2/7/14
f 6/9/15 7/37/15 3/10/15
f 4/38/5 3/11/5 8/13/5
f 1/15/6 4/39/6 8/16/6
f 17/40/7 21/17/7 18/19/7
f 18/28/9 22/23/9 19/25/9
f 19/41/8 23/26/8 20/28/8
f 20/42/10 24/29/10 17/31/10
f 21/43/11 24/32/11 22/34/11
